<svg width="25" height="24" viewBox="0 0 25 24" fill="none" xmlns="http://www.w3.org/2000/svg">
<path d="M16.1636 12.0001C16.1643 12.1317 16.1396 12.2621 16.0907 12.384C16.0419 12.5058 15.9699 12.6166 15.8789 12.7101L11.9516 16.7101C11.8601 16.8033 11.7514 16.8773 11.6318 16.9277C11.5122 16.9782 11.384 17.0042 11.2545 17.0042C11.125 17.0042 10.9969 16.9782 10.8772 16.9277C10.7576 16.8773 10.649 16.8033 10.5574 16.7101C10.4659 16.6168 10.3933 16.5061 10.3437 16.3843C10.2942 16.2625 10.2687 16.1319 10.2687 16.0001C10.2687 15.8682 10.2942 15.7376 10.3437 15.6158C10.3933 15.494 10.4659 15.3833 10.5574 15.2901L13.8072 12.0001L10.6851 8.70006C10.5846 8.60807 10.5039 8.49596 10.448 8.37075C10.392 8.24553 10.362 8.10991 10.3599 7.97236C10.3578 7.8348 10.3835 7.69828 10.4355 7.57132C10.4876 7.44437 10.5647 7.32971 10.6623 7.23453C10.7598 7.13934 10.8755 7.06567 11.0023 7.01813C11.129 6.97059 11.264 6.95019 11.3989 6.95822C11.5337 6.96625 11.6655 7.00253 11.7859 7.06479C11.9064 7.12705 12.0129 7.21395 12.0989 7.32006L15.8887 11.3201C16.0618 11.5029 16.1601 11.7461 16.1636 12.0001Z" fill="black"/>
</svg>
