<svg width="53" height="34" viewBox="0 0 53 34" fill="none" xmlns="http://www.w3.org/2000/svg">
<g filter="url(#filter0_d)">
<path d="M4.20117 8.4043C8.15299 8.11133 10.7311 7.96484 11.9355 7.96484C13.1465 7.96484 14.1003 8.07878 14.7969 8.30664C15.5 8.52799 16.1283 8.83724 16.6816 9.23438C17.7559 9.99609 18.5664 11.0085 19.1133 12.2715C19.6667 13.5345 19.9434 14.8138 19.9434 16.1094C19.9434 17.4049 19.7318 18.5378 19.3086 19.5078C18.8919 20.4714 18.3125 21.2852 17.5703 21.9492C16.0534 23.3229 14.0905 24.0065 11.6816 24H4.20117V8.4043ZM10.2754 13.3555V19.3027C10.6204 19.0098 10.9948 18.7201 11.3984 18.4336C12.9479 17.3203 13.7227 16.1549 13.7227 14.9375C13.7227 14.3451 13.5469 13.7982 13.1953 13.2969C12.8438 12.7891 12.3848 12.5352 11.8184 12.5352C11.2585 12.5352 10.7441 12.8086 10.2754 13.3555ZM27.1211 8.4043L28.9082 13.9609L32.8047 8.73633C32.9349 8.56055 33.0326 8.44661 33.0977 8.39453C33.1628 8.34245 33.2604 8.31641 33.3906 8.31641C33.5208 8.31641 33.6868 8.45638 33.8887 8.73633L37.5215 13.9023L39.2793 8.4043H44.8652L39.7676 23.5996C39.5462 24.2507 39.1719 24.5762 38.6445 24.5762C38.1172 24.5762 37.6452 24.2767 37.2285 23.6777L32.8633 17.3789L28.166 23.6973C27.7428 24.2572 27.2708 24.5371 26.75 24.5371C26.2292 24.5371 25.8483 24.2116 25.6074 23.5605L20.1191 8.4043H27.1211Z" fill="white"/>
</g>
<defs>
<filter id="filter0_d" x="0.201172" y="3.96484" width="52.6641" height="28.6113" filterUnits="userSpaceOnUse" color-interpolation-filters="sRGB">
<feFlood flood-opacity="0" result="BackgroundImageFix"/>
<feColorMatrix in="SourceAlpha" type="matrix" values="0 0 0 0 0 0 0 0 0 0 0 0 0 0 0 0 0 0 127 0"/>
<feOffset dx="2" dy="2"/>
<feGaussianBlur stdDeviation="3"/>
<feColorMatrix type="matrix" values="0 0 0 0 0 0 0 0 0 0 0 0 0 0 0 0 0 0 0.25 0"/>
<feBlend mode="normal" in2="BackgroundImageFix" result="effect1_dropShadow"/>
<feBlend mode="normal" in="SourceGraphic" in2="effect1_dropShadow" result="shape"/>
</filter>
</defs>
</svg>
